<mxfile host="app.diagrams.net" modified="2023-10-16T14:44:28.987Z" agent="Mozilla/5.0 (Macintosh; Intel Mac OS X 10_15_7) AppleWebKit/605.1.15 (KHTML, like Gecko) Version/16.6 Safari/605.1.15" version="22.0.4" etag="XGudVBXbZsPiMWZX8EM0" type="github">
  <diagram name="第 1 页" id="Km3kuesBRIZzuJt2vbrR">
    <mxGraphModel>
      <root>
        <mxCell id="0" />
        <mxCell id="1" parent="0" />
      </root>
    </mxGraphModel>
  </diagram>
</mxfile>
